<?xml version="1.0" encoding="UTF-8"?><svg id="Dot" xmlns="http://www.w3.org/2000/svg" viewBox="0 0 1080 337.19"><defs><style>.cls-1{fill:#fff;}</style></defs><path class="cls-1" d="M1080,20.03C1080,8.97,1071.03,0,1059.97,0c-9.8,0-17.95,7.05-19.68,16.35h-109.21C929.35,7.05,921.21,0,911.41,0s-17.95,7.05-19.68,16.35h-109.21C780.79,7.05,772.65,0,762.84,0s-17.95,7.05-19.68,16.35h-109.27c-1.87-9.12-9.94-15.98-19.62-15.98s-17.75,6.86-19.62,15.98h-109.27C483.67,7.05,475.52,0,465.72,0s-17.95,7.05-19.68,16.35h-109.21C335.1,7.05,326.96,0,317.16,0s-17.95,7.05-19.68,16.35h-109.21C186.54,7.05,178.4,0,168.59,0s-17.95,7.05-19.68,16.35H39.71C37.98,7.05,29.83,0,20.03,0,8.97,0,0,8.97,0,20.03,0,29.83,7.05,37.98,16.35,39.71v54.6c0,2.03,1.65,3.68,3.68,3.68h54.6c1.73,9.3,9.87,16.35,19.68,16.35,8.86,0,16.36-5.76,19-13.73,23.67,6.63,42.35,25.3,48.98,48.98-7.97,2.64-13.73,10.14-13.73,19,0,9.8,7.05,17.95,16.35,19.68v109.21c-9.3,1.73-16.35,9.87-16.35,19.68,0,11.06,8.97,20.03,20.03,20.03,9.8,0,17.95-7.05,19.68-16.35h109.21c1.73,9.3,9.87,16.35,19.68,16.35,11.06,0,20.03-8.97,20.03-20.03,0-9.8-7.05-17.95-16.35-19.68v-109.21c9.3-1.73,16.35-9.87,16.35-19.68,0-8.86-5.76-16.36-13.73-19,6.63-23.67,25.3-42.35,48.98-48.98,2.64,7.97,10.15,13.73,19,13.73s16.36-5.76,19-13.73c23.67,6.63,42.35,25.3,48.98,48.98-7.97,2.64-13.73,10.14-13.73,19,0,9.8,7.05,17.95,16.35,19.68v108.84c-9.3,1.73-16.35,9.87-16.35,19.68,0,11.06,8.97,20.03,20.03,20.03,9.67,0,17.75-6.86,19.62-15.98h109.32c1.87,9.12,9.95,15.98,19.62,15.98,11.06,0,20.03-8.97,20.03-20.03,0-9.8-7.05-17.95-16.35-19.68v-108.84c9.3-1.73,16.35-9.87,16.35-19.68,0-8.86-5.76-16.36-13.73-19,6.63-23.67,25.3-42.35,48.98-48.98,2.64,7.97,10.14,13.73,19,13.73s16.36-5.76,19-13.73c23.67,6.63,42.35,25.3,48.98,48.98-7.97,2.64-13.73,10.14-13.73,19,0,9.8,7.05,17.95,16.35,19.68v108.84c-9.3,1.73-16.35,9.87-16.35,19.68,0,11.06,8.97,20.03,20.03,20.03,9.68,0,17.75-6.86,19.62-15.98h109.27c1.73,9.3,9.87,16.35,19.68,16.35,11.06,0,20.03-8.97,20.03-20.03,0-9.8-7.05-17.95-16.35-19.68v-109.21c9.3-1.73,16.35-9.87,16.35-19.68,0-8.86-5.76-16.36-13.73-19,6.63-23.67,25.3-42.35,48.98-48.98,2.64,7.97,10.14,13.73,19,13.73,9.8,0,17.95-7.05,19.68-16.35h54.6c2.03,0,3.68-1.65,3.68-3.68v-54.6c9.3-1.73,16.35-9.87,16.35-19.68ZM774.16,185.11l46.44,46.44c-2.21,3.22-3.51,7.12-3.51,11.32s1.3,8.1,3.51,11.32l-46.23,46.23c-2.31-1.63-4.97-2.78-7.85-3.31v-108.84c2.79-.52,5.38-1.61,7.64-3.16ZM779.52,305.69l46.29-46.29c3.22,2.21,7.12,3.51,11.32,3.51s8.1-1.3,11.32-3.51l46.44,46.44c-1.55,2.26-2.64,4.84-3.16,7.64h-109.15c-.47-2.84-1.53-5.48-3.06-7.78ZM900.09,300.63l-46.44-46.44c2.21-3.22,3.51-7.12,3.51-11.32s-1.3-8.1-3.51-11.32l46.44-46.44c2.26,1.55,4.84,2.64,7.64,3.16v109.21c-2.79.52-5.38,1.61-7.64,3.16ZM894.89,179.91l-46.44,46.44c-3.22-2.21-7.12-3.51-11.32-3.51s-8.1,1.3-11.32,3.51l-46.44-46.44c2.21-3.22,3.51-7.12,3.51-11.32s-1.3-8.1-3.51-11.32l46.44-46.44c3.22,2.21,7.12,3.51,11.32,3.51s8.1-1.3,11.32-3.51l46.44,46.44c-2.21,3.22-3.51,7.12-3.51,11.32s1.3,8.1,3.51,11.32ZM848.44,77.79c-3.22-2.21-7.12-3.51-11.32-3.51s-8.1,1.3-11.32,3.51l-46.44-46.44c1.55-2.26,2.64-4.84,3.16-7.64h109.21c.52,2.79,1.61,5.38,3.16,7.64l-46.44,46.44ZM699.88,77.79c-3.22-2.21-7.12-3.51-11.32-3.51s-8.1,1.3-11.32,3.51l-46.29-46.29c1.54-2.3,2.59-4.94,3.06-7.79h109.15c.52,2.79,1.61,5.38,3.16,7.64l-46.44,46.44ZM477.04,185.11l46.44,46.44c-2.21,3.22-3.51,7.12-3.51,11.32s1.3,8.1,3.51,11.32l-46.23,46.23c-2.31-1.63-4.97-2.78-7.85-3.31v-108.84c2.79-.52,5.38-1.61,7.64-3.16ZM482.39,305.69l46.29-46.29c3.22,2.21,7.12,3.51,11.32,3.51s8.1-1.3,11.32-3.51l46.29,46.29c-1.54,2.3-2.59,4.94-3.06,7.79h-109.1c-.47-2.84-1.53-5.48-3.06-7.79ZM602.75,300.42l-46.23-46.23c2.21-3.22,3.51-7.12,3.51-11.32s-1.3-8.1-3.51-11.32l46.44-46.44c2.26,1.55,4.84,2.64,7.64,3.16v108.84c-2.88.54-5.54,1.69-7.85,3.31ZM597.76,179.91l-46.44,46.44c-3.22-2.21-7.12-3.51-11.32-3.51s-8.1,1.3-11.32,3.51l-46.44-46.44c2.21-3.22,3.51-7.12,3.51-11.32s-1.3-8.1-3.51-11.32l46.44-46.44c3.22,2.21,7.12,3.51,11.32,3.51s8.1-1.3,11.32-3.51l46.44,46.44c-2.21,3.22-3.51,7.12-3.51,11.32s1.3,8.1,3.51,11.32ZM551.32,77.79c-3.22-2.21-7.12-3.51-11.32-3.51s-8.1,1.3-11.32,3.51l-46.44-46.44c1.55-2.26,2.64-4.84,3.16-7.64h109.15c.47,2.84,1.53,5.48,3.06,7.78l-46.29,46.29ZM402.75,77.79c-3.22-2.21-7.12-3.51-11.32-3.51s-8.1,1.3-11.32,3.51l-46.44-46.44c1.55-2.26,2.64-4.84,3.16-7.64h109.21c.52,2.79,1.61,5.38,3.16,7.64l-46.44,46.44ZM179.91,185.11l46.44,46.44c-2.21,3.22-3.51,7.12-3.51,11.32s1.3,8.1,3.51,11.32l-46.44,46.44c-2.26-1.55-4.84-2.64-7.64-3.16v-109.21c2.79-.52,5.38-1.61,7.64-3.16ZM185.11,305.84l46.44-46.44c3.22,2.21,7.12,3.51,11.32,3.51s8.1-1.3,11.32-3.51l46.44,46.44c-1.55,2.26-2.64,4.84-3.16,7.64h-109.21c-.52-2.79-1.61-5.38-3.16-7.64ZM305.84,300.63l-46.44-46.44c2.21-3.22,3.51-7.12,3.51-11.32s-1.3-8.1-3.51-11.32l46.44-46.44c2.26,1.55,4.84,2.64,7.64,3.16v109.21c-2.79.52-5.38,1.61-7.64,3.16ZM300.63,179.91l-46.44,46.44c-3.22-2.21-7.12-3.51-11.32-3.51s-8.1,1.3-11.32,3.51l-46.44-46.44c2.21-3.22,3.51-7.12,3.51-11.32s-1.3-8.1-3.51-11.32l46.44-46.44c3.22,2.21,7.12,3.51,11.32,3.51s8.1-1.3,11.32-3.51l46.44,46.44c-2.21,3.22-3.51,7.12-3.51,11.32s1.3,8.1,3.51,11.32ZM254.19,77.79c-3.22-2.21-7.12-3.51-11.32-3.51s-8.1,1.3-11.32,3.51l-46.44-46.44c1.55-2.26,2.64-4.84,3.16-7.64h109.21c.52,2.79,1.61,5.38,3.16,7.64l-46.44,46.44ZM23.71,39.71c2.79-.52,5.38-1.61,7.64-3.16l46.44,46.44c-1.55,2.26-2.64,4.84-3.16,7.64H23.71v-50.92ZM105.63,77.79c-3.22-2.21-7.12-3.51-11.32-3.51s-8.1,1.3-11.32,3.51L36.55,31.35c1.55-2.26,2.64-4.84,3.16-7.64h109.21c.52,2.79,1.61,5.38,3.16,7.64l-46.44,46.44ZM931.08,23.71h109.21c.52,2.79,1.61,5.38,3.16,7.64l-46.44,46.44c-3.22-2.21-7.12-3.51-11.32-3.51s-8.1,1.3-11.32,3.51l-46.44-46.44c1.55-2.26,2.64-4.84,3.16-7.64ZM1002.21,82.99l46.44-46.44c2.26,1.55,4.84,2.64,7.64,3.16v50.92h-50.92c-.52-2.79-1.61-5.38-3.16-7.64ZM114.29,93.24c-.2-3.79-1.44-7.3-3.45-10.24l46.44-46.44c3.22,2.21,7.12,3.51,11.32,3.51s8.1-1.3,11.32-3.51l46.44,46.44c-2.21,3.22-3.51,7.12-3.51,11.32s1.3,8.1,3.51,11.32l-46.44,46.44c-2.94-2.02-6.45-3.25-10.24-3.45-7.15-26.96-28.42-48.23-55.38-55.38ZM316.08,148.62c-3.79.2-7.3,1.44-10.24,3.45l-46.44-46.44c2.21-3.22,3.51-7.12,3.51-11.32s-1.3-8.1-3.51-11.32l46.44-46.44c3.22,2.21,7.12,3.51,11.32,3.51s8.1-1.3,11.32-3.51l46.44,46.44c-2.02,2.94-3.25,6.45-3.45,10.24-26.96,7.15-48.23,28.42-55.38,55.38ZM411.41,93.24c-.2-3.79-1.44-7.3-3.45-10.24l46.44-46.44c3.22,2.21,7.12,3.51,11.32,3.51s8.1-1.3,11.32-3.51l46.44,46.44c-2.21,3.22-3.51,7.12-3.51,11.32s1.3,8.1,3.51,11.32l-46.44,46.44c-2.94-2.02-6.45-3.25-10.24-3.45-7.15-26.96-28.42-48.23-55.38-55.38ZM613.21,148.62c-3.79.2-7.3,1.44-10.24,3.45l-46.44-46.44c2.21-3.22,3.51-7.12,3.51-11.32s-1.3-8.1-3.51-11.32l46.23-46.23c3.26,2.3,7.23,3.67,11.53,3.67s8.27-1.36,11.53-3.67l46.23,46.23c-2.02,2.94-3.25,6.45-3.45,10.24-26.96,7.15-48.23,28.42-55.38,55.38ZM708.54,93.24c-.2-3.79-1.44-7.3-3.45-10.24l46.44-46.44c3.22,2.21,7.12,3.51,11.32,3.51s8.1-1.3,11.32-3.51l46.44,46.44c-2.21,3.22-3.51,7.12-3.51,11.32s1.3,8.1,3.51,11.32l-46.44,46.44c-2.94-2.02-6.45-3.25-10.24-3.45-7.15-26.96-28.42-48.23-55.38-55.38ZM910.33,148.62c-3.79.2-7.3,1.44-10.24,3.45l-46.44-46.44c2.21-3.22,3.51-7.12,3.51-11.32s-1.3-8.1-3.51-11.32l46.44-46.44c3.22,2.21,7.12,3.51,11.32,3.51s8.1-1.3,11.32-3.51l46.44,46.44c-2.02,2.94-3.25,6.45-3.45,10.24-26.96,7.15-48.23,28.42-55.38,55.38Z"/></svg>